<?xml version="1.0" encoding="UTF-8"?>
<svg id="Laag_2" data-name="Laag 2" xmlns="http://www.w3.org/2000/svg" viewBox="0 0 498.06 74.21">
  <defs>
    <style>
      .cls-1 {
        fill: red;
        stroke: #fff;
        stroke-miterlimit: 10;
        stroke-width: 1.5px;
      }

      .cls-2 {
        fill: #fff;
        stroke-width: 0px;
      }
    </style>
  </defs>
  <g id="Laag_1-2" data-name="Laag 1">
    <g>
      <g>
        <path class="cls-1" d="m30,20.99c-2.56-1.63-5.45-2.45-8.66-2.45-2.02,0-3.77.44-5.24,1.32-1.48.88-2.68,1.81-3.61,2.8V6.81c0-1.04-.09-1.99-.27-2.87-.18-.88-.67-1.6-1.48-2.18-.8-.57-2.16-.85-4.08-.85s-3.28.27-4.08.82c-.8.54-1.31,1.26-1.51,2.14-.21.88-.31,1.84-.31,2.88v44.75c0,1.04.09,2.01.27,2.91.18.91.67,1.63,1.48,2.18.8.54,2.16.82,4.08.82s3.27-.27,4.08-.82c.8-.54,1.31-1.26,1.51-2.14.21-.88.31-1.84.31-2.87v-15.46c.21-1.66,1.02-3.07,2.45-4.23,1.42-1.17,3.09-1.75,5.01-1.75,1.45,0,2.68.31,3.69.93,1.01.62,1.77,1.46,2.29,2.52.52,1.06.78,2.34.78,3.85v14.06c0,1.04.09,2.01.27,2.91.18.91.69,1.63,1.51,2.18.83.54,2.18.82,4.04.82,1.97,0,3.34-.27,4.12-.82.78-.54,1.27-1.26,1.48-2.14.21-.88.31-1.84.31-2.87v-14.06c0-3.68-.76-6.94-2.29-9.79-1.53-2.85-3.57-5.09-6.14-6.72Z"/>
        <path class="cls-1" d="m79.87,19.39c-.8-.57-2.14-.85-4-.85-1.97,0-3.41.32-4.31.97-.91.65-1.36,1.59-1.36,2.84l.7,1.09c-.47-.67-1.15-1.37-2.06-2.1-.91-.72-2.03-1.36-3.38-1.9-1.35-.54-2.98-.82-4.89-.82-2.38,0-4.64.52-6.76,1.55-2.12,1.04-4.03,2.45-5.71,4.23-1.68,1.79-3.02,3.83-4,6.14-.98,2.3-1.48,4.73-1.48,7.26s.49,5.05,1.48,7.38c.98,2.33,2.3,4.42,3.96,6.25,1.66,1.84,3.56,3.28,5.71,4.31,2.15,1.04,4.41,1.55,6.8,1.55,2.02,0,3.74-.3,5.17-.89,1.42-.6,2.58-1.27,3.46-2.02.88-.75,1.48-1.38,1.79-1.9l-.78,1.32c-.05.98.39,1.81,1.32,2.49.93.67,2.36,1.01,4.27,1.01s3.27-.27,4.08-.82c.8-.54,1.29-1.28,1.48-2.21.18-.93.27-1.89.27-2.87v-26.8c0-1.04-.09-2.02-.27-2.95-.18-.93-.67-1.68-1.48-2.25Zm-11.3,22.45c-.67,1.19-1.55,2.14-2.64,2.84s-2.33,1.05-3.73,1.05-2.78-.35-4-1.05c-1.22-.7-2.18-1.63-2.87-2.8-.7-1.16-1.05-2.45-1.05-3.85,0-1.5.35-2.85,1.05-4.04.7-1.19,1.63-2.14,2.8-2.84s2.47-1.05,3.92-1.05,2.67.34,3.81,1.01c1.14.67,2.05,1.59,2.72,2.76.67,1.17,1.01,2.5,1.01,4s-.34,2.77-1.01,3.96Z"/>
        <path class="cls-1" d="m104.73,46.35c-.65-.16-1.28-.23-1.9-.23-.67,0-1.22-.05-1.63-.16-.41-.1-.74-.31-.97-.62-.23-.31-.39-.74-.47-1.28s-.12-1.23-.12-2.06V6.65c0-1.03-.1-1.99-.31-2.87-.21-.88-.71-1.6-1.52-2.18-.8-.57-2.14-.85-4-.85s-3.28.29-4.08.85c-.8.57-1.31,1.29-1.51,2.18-.21.88-.31,1.84-.31,2.87v35.89c0,2.54.18,4.67.54,6.41.36,1.74.91,3.16,1.63,4.27.72,1.11,1.66,1.98,2.8,2.6,1.14.62,2.54,1.04,4.19,1.24,1.66.21,3.55.31,5.67.31.67,0,1.33-.08,1.98-.23.65-.16,1.2-.65,1.67-1.48.47-.83.7-2.18.7-4.04s-.23-3.11-.7-3.88c-.47-.78-1.02-1.24-1.67-1.4Z"/>
        <path class="cls-1" d="m146.99,19.39c-.8-.57-2.14-.85-4-.85-1.97,0-3.41.32-4.31.97-.91.65-1.36,1.59-1.36,2.84l.7,1.09c-.47-.67-1.15-1.37-2.06-2.1-.91-.72-2.03-1.36-3.38-1.9-1.35-.54-2.98-.82-4.89-.82-2.38,0-4.64.52-6.76,1.55-2.12,1.04-4.03,2.45-5.71,4.23-1.68,1.79-3.02,3.83-4,6.14-.98,2.3-1.48,4.73-1.48,7.26s.49,5.05,1.48,7.38c.98,2.33,2.3,4.42,3.96,6.25,1.66,1.84,3.56,3.28,5.71,4.31,2.15,1.04,4.41,1.55,6.8,1.55,2.02,0,3.74-.3,5.17-.89,1.42-.6,2.58-1.27,3.46-2.02.88-.75,1.48-1.38,1.79-1.9l-.78,1.32c-.05.98.39,1.81,1.32,2.49.93.67,2.36,1.01,4.27,1.01s3.27-.27,4.08-.82c.8-.54,1.29-1.28,1.48-2.21.18-.93.27-1.89.27-2.87v-26.8c0-1.04-.09-2.02-.27-2.95-.18-.93-.67-1.68-1.48-2.25Zm-11.3,22.45c-.67,1.19-1.55,2.14-2.64,2.84s-2.33,1.05-3.73,1.05-2.78-.35-4-1.05c-1.22-.7-2.18-1.63-2.87-2.8-.7-1.16-1.05-2.45-1.05-3.85,0-1.5.35-2.85,1.05-4.04.7-1.19,1.63-2.14,2.8-2.84,1.16-.7,2.47-1.05,3.92-1.05s2.67.34,3.81,1.01c1.14.67,2.05,1.59,2.72,2.76.67,1.17,1.01,2.5,1.01,4s-.34,2.77-1.01,3.96Z"/>
        <path class="cls-1" d="m171.85,46.35c-.65-.16-1.28-.23-1.9-.23-.67,0-1.22-.05-1.63-.16-.42-.1-.74-.31-.97-.62s-.39-.74-.47-1.28c-.08-.54-.12-1.23-.12-2.06V6.65c0-1.03-.1-1.99-.31-2.87-.21-.88-.71-1.6-1.51-2.18-.8-.57-2.14-.85-4-.85s-3.28.29-4.08.85c-.8.57-1.31,1.29-1.51,2.18-.21.88-.31,1.84-.31,2.87v35.89c0,2.54.18,4.67.54,6.41.36,1.74.91,3.16,1.63,4.27.72,1.11,1.66,1.98,2.8,2.6,1.14.62,2.54,1.04,4.19,1.24,1.66.21,3.55.31,5.67.31.67,0,1.33-.08,1.98-.23.65-.16,1.2-.65,1.67-1.48.47-.83.7-2.18.7-4.04s-.23-3.11-.7-3.88c-.47-.78-1.02-1.24-1.67-1.4Z"/>
        <path class="cls-1" d="m201.64,31.63c-.78-.18-1.55-.27-2.33-.27h-18.18c-.73,0-1.48.09-2.25.27-.78.18-1.44.63-1.98,1.36-.54.73-.82,1.97-.82,3.73s.26,3.03.78,3.81c.52.78,1.16,1.24,1.94,1.4.78.16,1.53.23,2.25.23h18.26c.83,0,1.63-.08,2.41-.23.78-.16,1.41-.62,1.9-1.4.49-.78.74-2.05.74-3.81s-.26-2.94-.78-3.69c-.52-.75-1.17-1.22-1.94-1.4Z"/>
        <path class="cls-1" d="m236.56,36.49c-1.22-.83-2.56-1.46-4.04-1.9-1.48-.44-2.91-.79-4.31-1.05-1.04-.21-1.99-.41-2.87-.62-.88-.21-1.66-.44-2.33-.7-.67-.26-1.2-.58-1.59-.97s-.58-.92-.58-1.59c0-.52.16-.97.47-1.36.31-.39.78-.7,1.4-.93.62-.23,1.37-.35,2.25-.35,1.04,0,2.08.21,3.15.62,1.06.42,2.07.87,3.03,1.36.96.49,1.85.84,2.68,1.05.67.1,1.32-.04,1.94-.43.62-.39,1.22-1,1.79-1.83.93-1.35,1.37-2.64,1.32-3.88-.05-1.24-.85-2.23-2.41-2.95-.88-.52-1.76-.96-2.64-1.32-.88-.36-1.77-.67-2.68-.93-.91-.26-1.83-.44-2.76-.54-.93-.1-1.86-.16-2.8-.16-3.32,0-6.11.45-8.39,1.36-2.28.91-4,2.21-5.17,3.92-1.17,1.71-1.75,3.83-1.75,6.37,0,1.92.28,3.53.85,4.86.57,1.32,1.33,2.43,2.29,3.34.96.91,2.05,1.64,3.26,2.21,1.22.57,2.45,1.04,3.69,1.4.98.31,1.92.57,2.8.78.88.21,1.72.43,2.53.66.8.23,1.5.48,2.1.74.59.26,1.06.57,1.4.93.34.36.5.83.5,1.4,0,.78-.4,1.39-1.2,1.83-.8.44-1.93.66-3.38.66-.98,0-1.94-.17-2.87-.5-.93-.34-1.84-.72-2.72-1.17-.88-.44-1.74-.85-2.56-1.24-.83-.39-1.66-.66-2.49-.82-.73-.21-1.33-.23-1.83-.08-.49.16-.95.52-1.36,1.09-.57.73-1.02,1.41-1.36,2.06-.34.65-.57,1.27-.7,1.86-.13.6-.14,1.15-.04,1.67.1,1.04.69,1.96,1.75,2.76,1.06.8,2.36,1.5,3.88,2.1,1.53.59,3.12,1.05,4.78,1.36,1.66.31,3.19.47,4.58.47,5.28,0,9.35-1.09,12.2-3.26,2.85-2.18,4.27-5.31,4.27-9.4,0-2.28-.38-4.12-1.13-5.52-.75-1.4-1.74-2.51-2.95-3.34Z"/>
        <path class="cls-1" d="m279.33,23.82c-1.35-1.71-2.99-3.02-4.93-3.92-1.94-.91-4.16-1.36-6.64-1.36-1.19,0-2.4.18-3.61.54-1.22.36-2.36.87-3.42,1.51-1.06.65-1.94,1.37-2.64,2.18-.37.43-.65.85-.86,1.27l.12-.38c-.1-.21-.16-.58-.16-1.13s-.12-1.13-.35-1.75c-.23-.62-.74-1.15-1.51-1.59-.78-.44-1.99-.66-3.65-.66-1.92,0-3.29.26-4.12.78-.83.52-1.33,1.2-1.52,2.06-.18.85-.27,1.77-.27,2.76v27.35c0,.98.09,1.93.27,2.84.18.91.67,1.63,1.48,2.18.8.54,2.16.82,4.08.82s3.27-.26,4.08-.78c.8-.52,1.29-1.23,1.48-2.14.18-.91.27-1.85.27-2.84v-14.14c0-1.5.3-2.8.89-3.88.6-1.09,1.44-1.93,2.53-2.52,1.09-.6,2.38-.89,3.88-.89s2.76.29,3.77.85c1.01.57,1.79,1.4,2.33,2.49.54,1.09.82,2.41.82,3.96v14.06c0,.98.09,1.93.27,2.84.18.91.69,1.63,1.51,2.18.83.54,2.2.82,4.12.82s3.35-.26,4.16-.78c.8-.52,1.29-1.23,1.48-2.14.18-.91.27-1.85.27-2.84v-14.14c0-2.74-.35-5.27-1.05-7.57-.7-2.3-1.72-4.31-3.07-6.02Z"/>
        <path class="cls-1" d="m318.13,20.44c-3.03-1.79-6.41-2.68-10.14-2.68-2.75,0-5.32.53-7.73,1.59-2.41,1.06-4.54,2.52-6.41,4.39-1.86,1.86-3.33,4-4.39,6.41-1.06,2.41-1.59,5.01-1.59,7.81,0,3,.58,5.74,1.75,8.2,1.17,2.46,2.73,4.57,4.7,6.33,1.97,1.76,4.16,3.12,6.56,4.08,2.41.96,4.83,1.44,7.26,1.44s4.75-.45,7.11-1.36c2.36-.91,4.51-2.24,6.45-4,1.94-1.76,3.5-3.87,4.66-6.33,1.16-2.46,1.75-5.27,1.75-8.43,0-3.73-.91-7.12-2.72-10.18-1.81-3.05-4.23-5.48-7.26-7.26Zm-3.07,22.1c-.88,1.24-1.97,2.18-3.26,2.8-1.3.62-2.56.93-3.81.93s-2.51-.3-3.81-.89c-1.3-.59-2.37-1.53-3.22-2.8-.85-1.27-1.28-2.84-1.28-4.7,0-1.6.38-3.04,1.13-4.31.75-1.27,1.73-2.26,2.95-2.99,1.22-.72,2.6-1.09,4.16-1.09,1.66,0,3.12.35,4.39,1.05,1.27.7,2.26,1.67,2.99,2.91.72,1.24,1.09,2.69,1.09,4.35,0,1.92-.44,3.5-1.32,4.74Z"/>
        <path class="cls-1" d="m367.54,39.44c1.37-1.4,2.06-3.52,2.06-6.37,0-1.6-.35-3.29-1.05-5.05-.7-1.76-1.76-3.4-3.19-4.93-1.43-1.53-3.24-2.77-5.44-3.73-2.2-.96-4.8-1.44-7.81-1.44-4.04,0-7.63.87-10.76,2.6-3.13,1.74-5.58,4.1-7.34,7.11-1.76,3-2.64,6.45-2.64,10.33,0,2.38.41,4.77,1.24,7.15.83,2.38,2.07,4.54,3.73,6.49,1.66,1.94,3.79,3.51,6.41,4.7,2.61,1.19,5.74,1.79,9.36,1.79,3.26,0,6.05-.29,8.35-.85,2.3-.57,4.09-1.33,5.36-2.29,1.27-.96,1.9-2.08,1.9-3.38,0-.52-.07-1.04-.19-1.55-.13-.52-.38-1.06-.74-1.63-.52-.98-1.11-1.72-1.79-2.21-.67-.49-1.37-.71-2.1-.66-.42.05-.85.16-1.32.31-.47.16-.97.35-1.51.58-.54.23-1.15.47-1.83.7-.67.23-1.49.41-2.45.54-.96.13-2.03.19-3.22.19-1.45,0-2.82-.26-4.12-.78-1.3-.52-2.37-1.24-3.22-2.18-.85-.93-1.33-2.05-1.44-3.34h18.49c2.12,0,3.87-.7,5.24-2.1Zm-9.67-4.78c-.41.29-1.01.43-1.79.43h-12.27c0-1.19.35-2.3,1.05-3.34.7-1.04,1.67-1.86,2.91-2.49,1.24-.62,2.64-.93,4.2-.93,1.29,0,2.42.19,3.38.58.96.39,1.72.95,2.29,1.67.57.73.85,1.53.85,2.41,0,.83-.21,1.39-.62,1.67Z"/>
        <path class="cls-1" d="m407.24,24.33c-1.68-1.79-3.59-3.2-5.71-4.23-2.12-1.04-4.35-1.55-6.68-1.55-2.49,0-4.67.51-6.56,1.52-.92.49-1.76,1.07-2.53,1.74v-.39c-.41-.98-1.1-1.71-2.06-2.18-.96-.47-2.24-.7-3.84-.7-1.86,0-3.2.29-4,.85-.8.57-1.28,1.28-1.44,2.14-.16.85-.23,1.8-.23,2.84v43.43c0,.98.08,1.9.23,2.76.16.85.65,1.55,1.48,2.1.83.54,2.18.82,4.04.82s3.27-.27,4.08-.82c.8-.54,1.31-1.26,1.51-2.14.21-.88.28-1.81.23-2.8v-14.16c.74.61,1.54,1.16,2.41,1.62,1.91,1.01,4.14,1.52,6.68,1.52,2.38,0,4.63-.48,6.76-1.44,2.12-.96,4.01-2.29,5.67-4,1.66-1.71,2.96-3.71,3.92-6.02.96-2.3,1.44-4.75,1.44-7.34s-.48-5.05-1.44-7.38c-.96-2.33-2.28-4.39-3.96-6.18Zm-7.3,17.52c-.7,1.19-1.62,2.14-2.76,2.84-1.14.7-2.44,1.05-3.88,1.05-1.35,0-2.59-.35-3.73-1.05-1.14-.7-2.05-1.64-2.72-2.84-.67-1.19-1.01-2.51-1.01-3.96s.32-2.76.97-3.92c.65-1.16,1.55-2.1,2.72-2.8,1.17-.7,2.45-1.05,3.85-1.05s2.68.34,3.85,1.01c1.17.67,2.08,1.61,2.76,2.8.67,1.19,1.01,2.51,1.01,3.96s-.35,2.77-1.05,3.96Z"/>
        <path class="cls-1" d="m422.73,44.8c-1.55,0-2.8.21-3.73.62-.93.41-1.61,1.09-2.02,2.02-.42.93-.62,2.2-.62,3.81,0,2.28.47,3.88,1.4,4.82.93.93,2.59,1.4,4.97,1.4,1.55,0,2.8-.19,3.73-.58.93-.39,1.59-1.05,1.98-1.98.39-.93.58-2.18.58-3.73,0-2.38-.45-4.04-1.36-4.97-.91-.93-2.55-1.4-4.93-1.4Z"/>
        <path class="cls-1" d="m467.87,23.82c-1.35-1.71-2.99-3.02-4.93-3.92-1.94-.91-4.16-1.36-6.64-1.36-1.19,0-2.4.18-3.61.54-1.22.36-2.36.87-3.42,1.51-1.06.65-1.94,1.37-2.64,2.18-.37.43-.65.85-.86,1.27l.12-.38c-.1-.21-.16-.58-.16-1.13s-.12-1.13-.35-1.75c-.23-.62-.74-1.15-1.51-1.59-.78-.44-1.99-.66-3.65-.66-1.92,0-3.29.26-4.12.78-.83.52-1.33,1.2-1.51,2.06-.18.85-.27,1.77-.27,2.76v27.35c0,.98.09,1.93.27,2.84.18.91.67,1.63,1.48,2.18.8.54,2.16.82,4.08.82s3.27-.26,4.08-.78c.8-.52,1.29-1.23,1.48-2.14.18-.91.27-1.85.27-2.84v-14.14c0-1.5.3-2.8.89-3.88.59-1.09,1.44-1.93,2.52-2.52,1.09-.6,2.38-.89,3.88-.89s2.76.29,3.77.85c1.01.57,1.79,1.4,2.33,2.49s.82,2.41.82,3.96v14.06c0,.98.09,1.93.27,2.84.18.91.69,1.63,1.51,2.18.83.54,2.2.82,4.12.82s3.35-.26,4.16-.78c.8-.52,1.29-1.23,1.48-2.14.18-.91.27-1.85.27-2.84v-14.14c0-2.74-.35-5.27-1.05-7.57-.7-2.3-1.72-4.31-3.07-6.02Z"/>
        <path class="cls-1" d="m496.61,47.75c-.47-.78-1.02-1.24-1.67-1.4-.65-.16-1.28-.23-1.9-.23-.67,0-1.22-.05-1.63-.16-.42-.1-.74-.31-.97-.62s-.39-.74-.47-1.28c-.08-.54-.12-1.23-.12-2.06V6.65c0-1.03-.1-1.99-.31-2.87-.21-.88-.71-1.6-1.51-2.18-.8-.57-2.14-.85-4-.85s-3.28.29-4.08.85c-.8.57-1.31,1.29-1.51,2.18-.21.88-.31,1.84-.31,2.87v35.89c0,2.54.18,4.67.54,6.41.36,1.74.91,3.16,1.63,4.27.72,1.11,1.66,1.98,2.8,2.6,1.14.62,2.54,1.04,4.2,1.24,1.66.21,3.55.31,5.67.31.67,0,1.33-.08,1.98-.23.65-.16,1.2-.65,1.67-1.48.47-.83.7-2.18.7-4.04s-.23-3.11-.7-3.88Z"/>
      </g>
      <circle class="cls-2" cx="4.81" cy="5.24" r="1.5"/>
      <circle class="cls-2" cx="91.81" cy="5.24" r="1.5"/>
      <circle class="cls-2" cx="158.81" cy="5.24" r="1.5"/>
      <circle class="cls-2" cx="482.81" cy="5.24" r="1.5"/>
    </g>
  </g>
</svg>